<svg width="44" height="44" viewBox="0 0 44 44" fill="none" xmlns="http://www.w3.org/2000/svg">
    <path fill-rule="evenodd" clip-rule="evenodd"
          d="M22 35C29.1797 35 35 29.1797 35 22C35 14.8203 29.1797 9 22 9C14.8203 9 9 14.8203 9 22C9 29.1797 14.8203 35 22 35ZM25.2929 24.2929L24.5858 25L26 26.4142L26.7071 25.7071L29.7071 22.7071L30.4142 22L29.7071 21.2929L26.7071 18.2929L26 17.5858L24.5858 19L25.2929 19.7071L26.5858 21H20V23H26.5858L25.2929 24.2929ZM20 27H19C17.8954 27 17 26.1046 17 25V19C17 17.8954 17.8954 17 19 17H20V15H19C16.7909 15 15 16.7909 15 19V25C15 27.2091 16.7909 29 19 29H20V27Z"
          fill="#94969F"/>
</svg>
