<svg width="44" height="44" viewBox="0 0 44 44" fill="none" xmlns="http://www.w3.org/2000/svg">
    <path fill-rule="evenodd" clip-rule="evenodd"
          d="M34.9186 20.5565C34.8775 20.191 34.4514 19.9164 34.0829 19.9164C32.8915 19.9164 31.8343 19.2169 31.391 18.135C30.938 17.027 31.2301 15.7347 32.118 14.9203C32.3975 14.6648 32.4314 14.2371 32.197 13.94C31.5873 13.1657 30.8942 12.4663 30.1375 11.8602C29.8412 11.6224 29.4064 11.6555 29.1495 11.94C28.3746 12.7981 26.9827 13.1171 25.9071 12.6683C24.7878 12.1975 24.082 11.0633 24.1511 9.84587C24.1738 9.46346 23.8943 9.13097 23.513 9.08656C22.542 8.97425 21.5624 8.97077 20.5884 9.07882C20.2115 9.12042 19.932 9.44508 19.9446 9.82265C19.987 11.0281 19.2727 12.1424 18.1645 12.5963C17.1018 13.0304 15.7197 12.7142 14.9463 11.8636C14.6907 11.5835 14.263 11.549 13.9653 11.7811C13.1861 12.3924 12.4775 13.0924 11.8621 13.8603C11.6221 14.1589 11.6574 14.5916 11.9397 14.8484C12.8445 15.6678 13.1367 16.9713 12.6666 18.0921C12.2178 19.1607 11.1082 19.8493 9.8379 19.8493C9.42568 19.8361 9.13207 20.1128 9.08699 20.4875C8.97264 21.4642 8.97129 22.4594 9.08138 23.444C9.1222 23.811 9.56131 24.0832 9.93386 24.0832C11.0659 24.0543 12.1528 24.7552 12.6088 25.8647C13.0632 26.9727 12.7711 28.2642 11.8818 29.0793C11.6037 29.3348 11.5684 29.7618 11.8028 30.0589C12.4069 30.8282 13.1 31.5283 13.8594 32.1395C14.1573 32.3795 14.5907 32.3457 14.8489 32.0612C15.6267 31.2009 17.0185 30.8825 18.0898 31.3321C19.2119 31.8015 19.9178 32.9356 19.8487 34.1537C19.8261 34.5363 20.107 34.8694 20.4867 34.9131C20.9835 34.9711 21.4832 35 21.9843 35C22.46 35 22.9358 34.9739 23.4115 34.921C23.7885 34.8794 24.0678 34.5547 24.0551 34.1765C24.0115 32.9717 24.727 31.8573 25.8338 31.4042C26.9036 30.9672 28.28 31.2871 29.0534 32.1367C29.3105 32.4163 29.7352 32.4501 30.0346 32.2188C30.8123 31.6089 31.5194 30.9095 32.1377 30.1395C32.3776 29.8416 32.3438 29.4082 32.06 29.1515C31.1552 28.3321 30.8616 27.0284 31.3317 25.9084C31.7736 24.854 32.842 24.1461 33.9912 24.1461L34.152 24.1503C34.5247 24.1805 34.8677 23.8934 34.9128 23.5129C35.0274 22.5354 35.0287 21.5411 34.9186 20.5565ZM22 27C24.7614 27 27 24.7614 27 22C27 19.2386 24.7614 17 22 17C19.2386 17 17 19.2386 17 22C17 24.7614 19.2386 27 22 27Z"
          fill="#ffffff"/>
</svg>
